<?xml version="1.0" standalone="no"?>
<!DOCTYPE svg PUBLIC "-//W3C//DTD SVG 1.1//EN" "http://www.w3.org/Graphics/SVG/1.1/DTD/svg11.dtd" >
<svg xmlns="http://www.w3.org/2000/svg">
<metadata>Generated by IcoMoon</metadata>
<defs>
<font id="icomoon" horiz-adv-x="1024">
<font-face units-per-em="1024" ascent="960" descent="-64" />
<missing-glyph horiz-adv-x="1024" />
<glyph unicode="&#x20;" horiz-adv-x="512" d="" />
<glyph unicode="&#xe900;" glyph-name="advantage1" d="M1024 758.343l-201.657 201.657h-254.036l-99.519-99.519c-248.798 20.951-450.455-120.471-453.074-123.090-7.857-5.238-10.476-18.332-5.238-26.189 5.238-2.619 10.476-5.238 15.714-5.238 2.619 0 7.857 0 10.476 2.619s175.468 123.090 398.077 117.852l-324.747-324.747-109.995-107.376 455.693-458.312 183.325 180.706c36.665-18.332 81.187-28.808 123.090-28.808 62.854 0 125.708 20.951 164.992 60.235 133.565 133.565 81.187 280.225 62.854 319.509l34.046 34.046v256.655zM806.629 923.335l180.706-180.706v-227.847l-353.555-350.936c-73.33 52.379-96.9 151.898-62.854 282.844 2.619 10.476-2.619 18.332-13.095 20.951s-18.332-2.619-20.951-13.095c-47.141-183.325 15.714-274.987 73.33-319.509l-44.522-39.284-405.934 405.934 322.128 319.509c75.949-7.857 157.136-34.046 235.703-83.806 0-5.238 0-7.857 0-13.095 0-39.284 31.427-70.711 70.711-70.711s70.711 31.427 70.711 70.711-31.427 70.711-70.711 70.711c-20.951 0-41.903-10.476-54.997-26.189-73.33 47.141-149.279 73.33-219.99 83.806l70.711 68.092h222.609zM759.488 708.583c7.857-5.238 18.332-5.238 26.189 2.619 5.238 7.857 5.238 18.332-2.619 26.189-5.238 5.238-10.476 7.857-15.714 13.095 5.238 5.238 15.714 10.476 23.57 10.476 18.332 0 34.046-15.714 34.046-34.046s-15.714-34.046-34.046-34.046c-15.714 0-26.189 7.857-31.427 20.951-2.619-2.619 0-2.619 0-5.238zM52.379 394.312l83.806 83.806 403.315-408.552-83.806-83.806-403.315 408.552zM903.529 174.322c-47.141-47.141-151.898-68.092-235.703-28.808l298.558 295.939c15.714-44.522 44.522-159.754-62.854-267.13z" />
<glyph unicode="&#xe901;" glyph-name="advantage2" d="M728.061 960h-432.123c-39.284 0-73.33-34.046-73.33-75.949v-874.721c0-41.903 34.046-75.949 75.949-75.949h429.504c41.903 0 75.949 34.046 75.949 75.949v874.721c-2.619 41.903-34.046 75.949-75.949 75.949zM256.655 823.816h513.309v-649.494h-513.309v649.494zM295.939 925.954h429.504c23.57 0 41.903-18.332 41.903-41.903v-26.189h-510.691v26.189c0 23.57 18.332 41.903 39.284 41.903zM728.061-29.954h-432.123c-23.57 0-41.903 18.332-41.903 41.903v130.946h513.309v-130.946c0-23.57-18.332-41.903-39.284-41.903zM513.309 124.563c-36.665 0-68.092-31.427-68.092-68.092s31.427-68.092 68.092-68.092c36.665 0 68.092 31.427 68.092 68.092s-31.427 68.092-68.092 68.092zM513.309 19.806c-18.332 0-34.046 15.714-34.046 34.046s15.714 34.046 34.046 34.046c18.332 0 34.046-15.714 34.046-34.046s-15.714-34.046-34.046-34.046zM445.217 873.575h68.092c10.476 0 18.332 7.857 18.332 18.332s-10.476 15.714-18.332 15.714h-68.092c-10.476 0-18.332-7.857-18.332-18.332s7.857-15.714 18.332-15.714zM563.069 873.575h18.332c10.476 0 18.332 7.857 18.332 18.332s-10.476 15.714-18.332 15.714h-18.332c-10.476 0-18.332-7.857-18.332-18.332s10.476-15.714 18.332-15.714zM966.384 881.432c-7.857 7.857-18.332 7.857-23.57 0s-7.857-18.332 0-23.57c62.854-62.854 62.854-167.611 0-230.465-7.857-7.857-7.857-18.332 0-23.57 2.619-2.619 7.857-5.238 13.095-5.238s7.857 2.619 13.095 5.238c75.949 75.949 75.949 201.657-2.619 277.606zM895.673 842.148c-7.857 7.857-18.332 7.857-23.57 0s-7.857-18.332 0-23.57c20.951-20.951 34.046-49.76 34.046-78.568s-10.476-57.616-34.046-78.568c-7.857-7.857-7.857-18.332 0-23.57 2.619-2.619 7.857-5.238 13.095-5.238s7.857 2.619 13.095 5.238c28.808 28.808 41.903 65.473 41.903 102.138s-18.332 75.949-44.522 102.138zM81.187 857.862c7.857 7.857 7.857 18.332 0 23.57s-15.714 7.857-23.57 0c-75.949-75.949-75.949-201.657 0-280.225 2.619-2.619 7.857-5.238 13.095-5.238s7.857 2.619 13.095 5.238c7.857 7.857 7.857 18.332 0 23.57-65.473 65.473-65.473 170.23-2.619 233.084zM154.517 847.386c-7.857 7.857-18.332 7.857-23.57 0-28.808-26.189-44.522-62.854-44.522-102.138s15.714-75.949 41.903-102.138c2.619-2.619 7.857-5.238 13.095-5.238s7.857 2.619 13.095 5.238c7.857 7.857 7.857 18.332 0 23.57-20.951 20.951-34.046 49.76-34.046 78.568s10.476 57.616 34.046 78.568c5.238 5.238 5.238 18.332 0 23.57z" />
<glyph unicode="&#xe902;" glyph-name="advantage3" d="M1003.049 493.831c20.951 20.951 26.189 49.76 18.332 75.949s-31.427 47.141-60.235 49.76l-248.798 36.665c-10.476 2.619-20.951 7.857-23.57 18.332l-109.995 225.228c-13.095 26.189-36.665 41.903-65.473 41.903s-52.379-15.714-65.473-41.903l-112.614-227.847c-5.238-10.476-13.095-15.714-23.57-18.332l-248.798-34.046c-28.808-5.238-49.76-23.57-60.235-49.76-7.857-26.189-2.619-54.997 18.332-75.949l180.706-175.468c7.857-7.857 10.476-18.332 10.476-28.808l-44.522-246.179c-5.238-28.808 5.238-54.997 28.808-70.711s52.379-18.332 78.568-5.238l222.609 117.852c10.476 5.238 20.951 5.238 31.427 0l222.609-117.852c10.476-5.238 23.57-7.857 34.046-7.857 15.714 0 31.427 5.238 41.903 13.095 23.57 15.714 34.046 44.522 28.808 70.711l-41.903 246.179c-2.619 10.476 2.619 20.951 10.476 28.808l178.087 175.468zM772.583 284.317l41.903-246.179c2.619-13.095-2.619-23.57-13.095-31.427s-23.57-7.857-34.046-2.619l-222.609 117.852c-10.476 5.238-23.57 7.857-34.046 7.857s-23.57-2.619-34.046-7.857l-222.609-117.852c-10.476-5.238-23.57-5.238-34.046 2.619s-15.714 18.332-13.095 31.427l41.903 246.179c5.238 23.57-2.619 47.141-20.951 65.473l-180.706 175.468c-7.857 7.857-13.095 20.951-7.857 34.046 2.619 13.095 13.095 20.951 26.189 20.951l248.798 36.665c23.57 2.619 44.522 18.332 54.997 39.284l109.995 225.228c5.238 10.476 15.714 18.332 28.808 18.332s23.57-7.857 28.808-18.332l109.995-225.228c10.476-20.951 31.427-36.665 54.997-39.284l248.798-36.665c13.095-2.619 23.57-10.476 26.189-20.951 2.619-13.095 0-23.57-7.857-34.046l-180.706-175.468c-10.476-18.332-18.332-41.903-15.714-65.473z" />
<glyph unicode="&#xe903;" glyph-name="advantage4" d="M539.499 310.506c18.332 2.619 34.046 10.476 44.522 26.189l159.754 219.99c5.238 7.857 5.238 15.714-2.619 20.951-5.238 5.238-15.714 7.857-20.951 2.619l-219.99-159.754c-15.714-10.476-23.57-26.189-23.57-44.522s5.238-34.046 18.332-47.141c10.476-10.476 26.189-18.332 41.903-18.332 0 0 2.619 0 2.619 0zM508.072 373.361c0 7.857 5.238 15.714 10.476 18.332l133.565 96.9-96.9-133.565c-5.238-5.238-10.476-10.476-18.332-10.476s-15.714 2.619-20.951 7.857c-5.238 5.238-7.857 13.095-7.857 20.951zM921.862 624.777c0 2.619 0 2.619 0 0 0 2.619 0 2.619 0 0-18.332 31.427-39.284 60.235-62.854 83.806l36.665 36.665 23.57-23.57 75.949 73.33-73.33 73.33-73.33-73.33 23.57-23.57-36.665-36.665c-26.189 23.57-52.379 44.522-81.187 60.235 0 0 0 0 0 0s0 0 0 0c-52.379 31.427-112.614 49.76-175.468 57.616v20.951h26.189c23.57 0 41.903 18.332 41.903 41.903s-20.951 44.522-44.522 44.522h-154.517c-23.57 0-41.903-18.332-41.903-41.903s18.332-41.903 41.903-41.903h26.189v-20.951c-18.332-2.619-36.665-5.238-54.997-7.857-10.476-2.619-15.714-10.476-13.095-20.951s10.476-15.714 20.951-13.095c15.714 2.619 31.427 5.238 47.141 7.857l18.332 2.619c5.238 0 10.476 0 15.714 0v-34.046c0-10.476 7.857-18.332 18.332-18.332s18.332 7.857 18.332 18.332v34.046c65.473-2.619 125.708-20.951 178.087-49.76l-15.714-28.808c-5.238-7.857-2.619-18.332 5.238-23.57 2.619-2.619 5.238-2.619 7.857-2.619 5.238 0 10.476 2.619 15.714 7.857l15.714 28.808c52.379-34.046 99.519-78.568 133.565-133.565l-28.808-15.714c-7.857-5.238-10.476-15.714-5.238-23.57 2.619-5.238 7.857-7.857 15.714-7.857 2.619 0 5.238 0 7.857 2.619l28.808 15.714c28.808-54.997 47.141-115.233 49.76-180.706h-36.665c-10.476 0-18.332-7.857-18.332-18.332s7.857-18.332 18.332-18.332h34.046c-2.619-65.473-20.951-125.708-49.76-180.706l-28.808 15.714c-7.857 5.238-18.332 2.619-23.57-5.238s-2.619-18.332 5.238-23.57l28.808-15.714c-34.046-52.379-78.568-99.519-133.565-133.565l-15.714 31.427c-5.238 7.857-15.714 10.476-23.57 5.238s-10.476-15.714-5.238-23.57l15.714-28.808c-54.997-28.808-115.233-44.522-178.087-49.76v34.046c0 10.476-7.857 18.332-18.332 18.332s-18.332-7.857-18.332-18.332v-34.046c-26.189 0-54.997 5.238-81.187 10.476-10.476 2.619-18.332-2.619-20.951-13.095s2.619-18.332 13.095-20.951c34.046-7.857 68.092-13.095 102.138-13.095 0 0 2.619 0 2.619 0s0 0 0 0 0 0 0 0c81.187 0 159.754 23.57 225.228 60.235 0 0 0 0 2.619 0 0 0 0 0 0 0 68.092 39.284 125.708 96.9 167.611 167.611 0 0 0 0 0 2.619 0 0 0 0 0 0 39.284 68.092 60.235 146.66 60.235 230.465s-15.714 167.611-54.997 233.084zM921.862 818.578l23.57-23.57-23.57-23.57-23.57 23.57 23.57 23.57zM508.072 857.862v49.76h-60.235c-5.238 0-7.857 2.619-7.857 7.857s2.619 7.857 7.857 7.857h154.517c5.238 0 7.857-2.619 7.857-7.857s-2.619-7.857-7.857-7.857h-60.235v-52.379c-5.238 0-10.476 0-18.332 0 0 0 0 0-2.619 0 0 0 0 0 0 0-2.619 0-5.238 0-7.857 0 0 2.619-2.619 2.619-5.238 2.619zM371.887 721.678h-86.425c-10.476 0-18.332-7.857-18.332-18.332s7.857-18.332 18.332-18.332h86.425c10.476 0 18.332 7.857 18.332 18.332s-7.857 18.332-18.332 18.332zM371.887 601.207h-170.23c-10.476 0-18.332-7.857-18.332-15.714 0-10.476 7.857-18.332 18.332-18.332h170.23c10.476 0 18.332 7.857 18.332 18.332 0 7.857-7.857 15.714-18.332 15.714zM371.887 480.737h-256.655c-10.476 0-18.332-7.857-18.332-18.332s7.857-18.332 18.332-18.332h256.655c10.476 0 18.332 7.857 18.332 18.332s-7.857 18.332-18.332 18.332zM371.887 362.885h-324.747c-10.476 0-18.332-7.857-18.332-18.332s7.857-18.332 18.332-18.332h324.747c10.476 0 18.332 7.857 18.332 18.332s-7.857 18.332-18.332 18.332zM371.887 242.414h-222.609c-10.476 0-18.332-7.857-18.332-18.332s7.857-18.332 18.332-18.332h222.609c10.476 0 18.332 7.857 18.332 18.332s-7.857 18.332-18.332 18.332zM371.887 124.563h-120.471c-10.476 0-18.332-7.857-18.332-18.332s7.857-18.332 18.332-18.332h120.471c10.476 0 18.332 7.857 18.332 18.332s-7.857 18.332-18.332 18.332z" />
<glyph unicode="&#xe904;" glyph-name="box" d="M848.457 204.19l-307.2-177.981v229.181l-9.752-4.876c-7.314-2.438-14.629-4.876-19.505-4.876-7.314 0-14.629 2.438-19.505 4.876h-2.438l-4.876 2.438-2.438 2.438v-229.181l-309.638 177.981v204.8l-60.952 31.695v-253.562c0-9.752 4.876-21.943 14.629-26.819l368.152-212.114c4.876-2.438 9.752-4.876 14.629-4.876s9.752 2.438 14.629 4.876l368.152 212.114c9.752 4.876 14.629 14.629 14.629 26.819v253.562l-60.952-29.257v-207.238h2.438zM533.943 811.276l-12.19 4.876c-7.314 2.438-12.19 2.438-19.505 0l-12.19-4.876c7.314-19.505 14.629-36.571 21.943-56.076 4.876 19.505 12.19 39.010 21.943 56.076zM953.295 652.8c0 0 0 0 0 0 0 2.438 0 2.438 0 2.438 0 2.438 0 4.876 0 4.876s0 2.438 0 2.438-2.438 2.438-2.438 4.876c0 0 0 2.438-2.438 2.438 0 2.438-2.438 2.438-4.876 4.876 0 0-2.438 2.438-2.438 2.438s0 0 0 0c-2.438 2.438-4.876 2.438-7.314 2.438 0 0 0 0 0 0l-75.581 24.381c-2.438-4.876-7.314-7.314-9.752-9.752-34.133-34.133-92.648-63.39-148.724-85.333l65.829-26.819v-148.724l-90.21-46.324v158.476l-102.4 53.638c26.819 7.314 190.171 53.638 253.562 117.029 19.505 19.505 43.886 48.762 41.448 82.895-2.438 36.571-26.819 56.076-46.324 73.143-4.876 4.876-12.19 9.752-17.067 14.629s-9.752 12.19-14.629 17.067c-17.067 19.505-39.010 46.324-75.581 46.324-34.133 0-60.952-24.381-80.457-41.448-63.39-63.39-109.714-229.181-117.029-256-7.314 26.819-53.638 190.171-117.029 256-17.067 17.067-46.324 41.448-80.457 41.448-36.571 0-60.952-26.819-75.581-46.324-12.19-2.438-17.067-9.752-21.943-14.629-4.876-7.314-12.19-12.19-17.067-17.067-19.505-17.067-43.886-36.571-46.324-73.143-2.438-34.133 21.943-63.39 41.448-82.895 63.39-63.39 229.181-109.714 253.562-117.029l-102.4-53.638v-156.038l-90.21 46.324v148.724l65.829 26.819c-53.638 21.943-114.59 51.2-148.724 85.333-2.438 2.438-7.314 7.314-9.752 9.752l-75.581-24.381c0 0 0 0 0 0-2.438 0-4.876-2.438-7.314-2.438 0 0 0 0 0 0s-2.438 0-2.438-2.438-2.438-2.438-4.876-4.876c0 0 0-2.438-2.438-2.438 0-2.438-2.438-4.876-2.438-4.876s0-2.438 0-2.438 0-4.876 0-4.876c0 0 0 0 0-2.438 0 0 0 0 0 0s0 0 0 0v-136.533c0-12.19 7.314-21.943 17.067-26.819l409.6-207.238c0 0 0 0 2.438 0 4.876-2.438 7.314-2.438 12.19-2.438s7.314 0 12.19 2.438c0 0 0 0 2.438 0l409.6 207.238c9.752 4.876 17.067 14.629 17.067 26.819l-2.438 134.095c0 0 0 0 0 0zM660.724 879.543c58.514 58.514 73.143 14.629 107.276-21.943 36.571-36.571 80.457-48.762 21.943-107.276-58.514-60.952-234.057-107.276-234.057-107.276s46.324 177.981 104.838 236.495zM253.562 857.6c36.571 36.571 48.762 80.457 107.276 21.943s107.276-236.495 107.276-236.495-177.981 46.324-236.495 107.276-14.629 70.705 21.943 107.276z" />
<glyph unicode="&#xe905;" glyph-name="cart" d="M308.194 141.463c-56.337 0-102.731-46.395-102.731-102.731s46.395-102.731 102.731-102.731 102.731 46.395 102.731 102.731-46.395 102.731-102.731 102.731zM0 960v-102.731h102.731l185.579-387.728-72.906-122.615c-6.628-16.57-9.942-36.453-9.942-49.709 0-56.337 46.395-102.731 102.731-102.731h613.074v102.731h-593.191c-6.628 0-9.942 6.628-9.942 9.942v6.628l46.395 82.848h377.786c39.767 0 72.906 19.883 86.162 49.709l185.579 331.392c9.942 9.942 9.942 16.57 9.942 26.511 0 29.825-19.883 49.709-49.709 49.709h-758.887l-46.395 106.045h-169.010zM818.537 141.463c-56.337 0-102.731-46.395-102.731-102.731s46.395-102.731 102.731-102.731 102.731 46.395 102.731 102.731-46.395 102.731-102.731 102.731z" />
<glyph unicode="&#xe906;" glyph-name="catalog" d="M259.413 65.707c0-71.635-58.072-129.707-129.707-129.707s-129.707 58.072-129.707 129.707c0 71.635 58.072 129.707 129.707 129.707s129.707-58.072 129.707-129.707zM641.707 65.707c0-71.635-58.072-129.707-129.707-129.707s-129.707 58.072-129.707 129.707c0 71.635 58.072 129.707 129.707 129.707s129.707-58.072 129.707-129.707zM1024 65.707c0-71.635-58.072-129.707-129.707-129.707s-129.707 58.072-129.707 129.707c0 71.635 58.072 129.707 129.707 129.707s129.707-58.072 129.707-129.707zM259.413 448c0-71.635-58.072-129.707-129.707-129.707s-129.707 58.072-129.707 129.707c0 71.635 58.072 129.707 129.707 129.707s129.707-58.072 129.707-129.707zM641.707 448c0-71.635-58.072-129.707-129.707-129.707s-129.707 58.072-129.707 129.707c0 71.635 58.072 129.707 129.707 129.707s129.707-58.072 129.707-129.707zM1024 448c0-71.635-58.072-129.707-129.707-129.707s-129.707 58.072-129.707 129.707c0 71.635 58.072 129.707 129.707 129.707s129.707-58.072 129.707-129.707zM259.413 830.293c0-71.635-58.072-129.707-129.707-129.707s-129.707 58.072-129.707 129.707c0 71.635 58.072 129.707 129.707 129.707s129.707-58.072 129.707-129.707zM641.707 830.293c0-71.635-58.072-129.707-129.707-129.707s-129.707 58.072-129.707 129.707c0 71.635 58.072 129.707 129.707 129.707s129.707-58.072 129.707-129.707zM1024 830.293c0-71.635-58.072-129.707-129.707-129.707s-129.707 58.072-129.707 129.707c0 71.635 58.072 129.707 129.707 129.707s129.707-58.072 129.707-129.707z" />
<glyph unicode="&#xe907;" glyph-name="clock" d="M804.571 618.667l14.629 7.314c-29.257 43.886-65.829 80.457-109.714 109.714l-7.314-14.629c-2.438-4.876-9.752-9.752-14.629-9.752-2.438 0-4.876 0-9.752 2.438-7.314 4.876-12.19 14.629-7.314 24.381l7.314 14.629c-46.324 24.381-95.086 36.571-151.162 39.010v-17.067c0-9.752-7.314-17.067-17.067-17.067s-17.067 7.314-17.067 17.067v19.505l-36.571-4.876c-31.695-4.876-63.39-14.629-92.648-26.819l-17.067-7.314 7.314-14.629c4.876-7.314 2.438-19.505-7.314-24.381-2.438-2.438-4.876-2.438-9.752-2.438s-12.19 2.438-14.629 9.752l-7.314 14.629c-43.886-29.257-80.457-65.829-109.714-109.714l14.629-9.752c7.314-4.876 12.19-14.629 7.314-24.381-2.438-4.876-9.752-9.752-14.629-9.752-2.438 0-4.876 0-9.752 2.438l-14.629 7.314c-24.381-46.324-36.571-95.086-39.010-151.162h17.067c9.752 0 17.067-7.314 17.067-17.067s-7.314-17.067-17.067-17.067h-19.505c2.438-53.638 17.067-104.838 39.010-151.162l14.629 7.314c7.314 4.876 19.505 2.438 24.381-7.314 4.876-7.314 2.438-19.505-7.314-24.381l-14.629-7.314c29.257-43.886 65.829-80.457 109.714-109.714l7.314 14.629c4.876 7.314 14.629 12.19 24.381 7.314 7.314-4.876 12.19-14.629 7.314-24.381l-7.314-14.629c46.324-24.381 95.086-36.571 151.162-39.010v21.943c0 9.752 7.314 17.067 17.067 17.067s17.067-7.314 17.067-17.067v-17.067c53.638 2.438 104.838 17.067 151.162 39.010l-7.314 14.629c-4.876 7.314-2.438 19.505 7.314 24.381 7.314 4.876 19.505 2.438 24.381-7.314l7.314-14.629c43.886 29.257 80.457 65.829 109.714 109.714l-17.067 9.752c-7.314 4.876-12.19 14.629-7.314 24.381 4.876 7.314 14.629 12.19 24.381 7.314l14.629-7.314c24.381 46.324 36.571 95.086 39.010 151.162h-17.067c-9.752 0-17.067 7.314-17.067 17.067s7.314 17.067 17.067 17.067h17.067c-2.438 53.638-17.067 104.838-39.010 151.162l-14.629-7.314c-2.438-2.438-4.876-2.438-9.752-2.438s-12.19 2.438-14.629 9.752c-4.876 2.438-2.438 12.19 7.314 17.067zM702.171 411.429h-124.343c-7.314-29.257-34.133-51.2-68.267-51.2-39.010 0-70.705 31.695-70.705 70.705 0 31.695 21.943 58.514 51.2 68.267v175.543c0 9.752 7.314 17.067 17.067 17.067s17.067-7.314 17.067-17.067v-177.981c24.381-7.314 43.886-24.381 48.762-48.762h124.343c9.752 0 17.067-7.314 17.067-17.067s-2.438-19.505-12.19-19.505zM546.133 430.933c0-18.851-15.282-34.133-34.133-34.133s-34.133 15.282-34.133 34.133c0 18.851 15.282 34.133 34.133 34.133s34.133-15.282 34.133-34.133zM880.152 784.457l70.705-70.705c2.438-2.438 7.314-4.876 12.19-4.876s9.752 2.438 12.19 4.876c56.076 56.076 56.076 143.848 0 199.924-26.819 26.819-63.39 41.448-99.962 41.448s-73.143-14.629-99.962-41.448c-2.438-2.438-4.876-7.314-4.876-12.19s2.438-9.752 4.876-12.19l78.019-80.457-29.257-29.257c-82.895 75.581-192.61 119.467-312.076 119.467s-231.619-43.886-314.514-119.467l-29.257 29.257 80.457 80.457c2.438 2.438 4.876 7.314 4.876 12.19s-2.438 9.752-4.876 12.19c-26.819 26.819-63.39 41.448-99.962 41.448s-73.143-14.629-99.962-41.448c-56.076-56.076-56.076-143.848 0-199.924 2.438-2.438 7.314-4.876 12.19-4.876s9.752 2.438 12.19 4.876l70.705 70.705 29.257-29.257c-80.457-85.333-131.657-199.924-131.657-326.705 0-173.105 92.648-324.267 231.619-404.724l-53.638-51.2c-7.314-7.314-7.314-17.067 0-24.381 2.438-2.438 7.314-4.876 12.19-4.876s9.752 2.438 12.19 4.876l60.952 60.952c63.39-31.695 131.657-48.762 207.238-48.762s143.848 17.067 207.238 48.762l60.952-60.952c2.438-2.438 7.314-4.876 12.19-4.876s9.752 2.438 12.19 4.876c7.314 7.314 7.314 17.067 0 24.381l-53.638 53.638c138.971 82.895 231.619 231.619 231.619 404.724 0 126.781-51.2 241.371-131.657 326.705l29.257 26.819zM858.21 630.857c0 0 0 0 0 0s0-2.438 0 0c34.133-60.952 53.638-129.219 53.638-199.924s-19.505-141.41-53.638-199.924c0 0 0 0 0 0s0 0 0 0c-34.133-60.952-85.333-109.714-143.848-143.848 0 0 0 0 0 0s0 0-2.438 0c-58.514-34.133-126.781-53.638-199.924-53.638s-141.41 19.505-199.924 53.638c0 0 0 0-2.438 0 0 0 0 0 0 0-60.952 34.133-109.714 85.333-143.848 143.848 0 0 0 0 0 0s0 0 0 0c-34.133 58.514-53.638 126.781-53.638 199.924s19.505 141.41 53.638 199.924c0 0 0 0 0 0s0 0 0 0c34.133 60.952 85.333 109.714 146.286 146.286 0 0 0 0 0 0s0 0 0 0c58.514 34.133 126.781 53.638 199.924 53.638s141.41-19.505 199.924-53.638c0 0 0 0 0 0s0 0 0 0c60.952-36.571 109.714-85.333 146.286-146.286z" />
<glyph unicode="&#xe908;" glyph-name="compare" d="M437.848 412.69c0 31.779-24.717 56.497-56.497 56.497h-56.497c-31.779 0-56.497-24.717-56.497-56.497v-391.945c0-31.779 24.717-56.497 56.497-56.497h60.028c31.779 0 56.497 24.717 56.497 56.497-3.531 0-3.531 391.945-3.531 391.945zM187.145 274.979c0 31.779-28.248 60.028-60.028 60.028h-49.434c-31.779 0-60.028-28.248-60.028-60.028v-250.703c0-31.779 28.248-60.028 60.028-60.028h49.434c31.779 0 60.028 28.248 60.028 60.028v250.703zM685.021 560.993c0 31.779-24.717 56.497-56.497 56.497h-60.028c-31.779 0-56.497-24.717-56.497-56.497v-540.248c0-31.779 24.717-56.497 56.497-56.497h60.028c31.779 0 56.497 24.717 56.497 56.497v540.248zM999.283 776.386l-109.462 141.241c-10.593 10.593-21.186 17.655-35.31 17.655s-28.248-7.062-35.31-17.655l-109.462-141.241c-10.593-10.593-10.593-24.717-7.062-35.31 7.062-10.593 21.186-17.655 38.841-17.655h28.248v-702.676c0-31.779 24.717-52.966 56.497-52.966h60.028c31.779 0 56.497 24.717 56.497 52.966v699.145h28.248c17.655 0 31.779 7.062 38.841 17.655 0 14.124 0 24.717-10.593 38.841z" />
<glyph unicode="&#xe909;" glyph-name="facebook" d="M0 960v-1024h546.133v395.545h-132.518v160.627h132.518v136.533c0 98.384 80.314 178.698 178.698 178.698h138.541v-144.565h-100.392c-32.125 0-56.22-26.102-56.22-56.22v-112.439h154.604l-22.086-160.627h-132.518v-397.553h317.239v1024h-1024z" />
<glyph unicode="&#xe90a;" glyph-name="favorites" d="M471.771 451.657c-14.629 32.914-21.943 65.829-21.943 106.057s7.314 80.457 21.943 117.029c14.629 36.571 36.571 73.143 62.171 102.4s58.514 54.857 91.429 73.143c32.914 18.286 73.143 29.257 113.371 29.257s76.8-7.314 113.371-21.943c32.914-14.629 65.829-36.571 91.429-62.171s43.886-58.514 58.514-91.429c14.629-32.914 21.943-73.143 21.943-113.371s-7.314-76.8-21.943-113.371c-14.629-32.914-36.571-65.829-62.171-91.429s-391.314-358.4-427.886-373.029v0 0c-32.914 14.629-402.286 347.429-427.886 373.029s-47.543 58.514-62.171 91.429c-14.629 36.571-21.943 73.143-21.943 113.371s7.314 76.8 21.943 113.371c14.629 32.914 36.571 65.829 62.171 91.429s58.514 47.543 91.429 62.171c32.914 14.629 73.143 21.943 113.371 21.943s76.8-10.971 113.371-29.257c32.914-18.286 65.829-43.886 91.429-73.143s47.543-65.829 62.171-102.4c14.629-36.571 21.943-76.8 21.943-117.029s-7.314-76.8-21.943-106.057c-14.629-32.914-36.571-58.514-62.171-80.457z" />
<glyph unicode="&#xe90b;" glyph-name="geo" d="M754.526 841.432c-64.674 64.674-150.905 97.011-242.526 97.011s-177.853-32.337-242.526-97.011c-118.568-118.568-134.737-344.926-32.337-485.053l274.863-398.821 274.863 398.821c107.789 134.737 91.621 361.095-32.337 485.053zM517.389 474.947c-70.063 0-129.347 53.895-129.347 123.958s53.895 123.958 123.958 123.958 123.958-53.895 123.958-123.958-48.505-123.958-118.568-123.958z" />
<glyph unicode="&#xe90c;" glyph-name="instagram" d="M512 550.4c-56.22 0-102.4-46.18-102.4-102.4s46.18-102.4 102.4-102.4c56.22 0 102.4 46.18 102.4 102.4s-46.18 102.4-102.4 102.4zM512 550.4c-56.22 0-102.4-46.18-102.4-102.4s46.18-102.4 102.4-102.4c56.22 0 102.4 46.18 102.4 102.4s-46.18 102.4-102.4 102.4zM682.667 715.043h-339.325c-54.212 0-98.384-44.173-98.384-98.384v-339.325c0-54.212 44.173-98.384 98.384-98.384h339.325c54.212 0 98.384 44.173 98.384 98.384v339.325c0 54.212-44.173 98.384-98.384 98.384zM512 271.31c-96.376 0-176.69 78.306-176.69 176.69 0 96.376 78.306 176.69 176.69 176.69 96.376 0 176.69-78.306 176.69-176.69s-78.306-176.69-176.69-176.69zM694.714 588.549c-22.086 0-42.165 18.071-42.165 42.165s18.071 42.165 42.165 42.165c22.086 0 42.165-18.071 42.165-42.165s-20.078-42.165-42.165-42.165zM512 550.4c-56.22 0-102.4-46.18-102.4-102.4s46.18-102.4 102.4-102.4c56.22 0 102.4 46.18 102.4 102.4s-46.18 102.4-102.4 102.4zM682.667 715.043h-339.325c-54.212 0-98.384-44.173-98.384-98.384v-339.325c0-54.212 44.173-98.384 98.384-98.384h339.325c54.212 0 98.384 44.173 98.384 98.384v339.325c0 54.212-44.173 98.384-98.384 98.384zM512 271.31c-96.376 0-176.69 78.306-176.69 176.69 0 96.376 78.306 176.69 176.69 176.69 96.376 0 176.69-78.306 176.69-176.69s-78.306-176.69-176.69-176.69zM694.714 588.549c-22.086 0-42.165 18.071-42.165 42.165s18.071 42.165 42.165 42.165c22.086 0 42.165-18.071 42.165-42.165s-20.078-42.165-42.165-42.165zM512 550.4c-56.22 0-102.4-46.18-102.4-102.4s46.18-102.4 102.4-102.4c56.22 0 102.4 46.18 102.4 102.4s-46.18 102.4-102.4 102.4zM0 960v-1024h1024v1024h-1024zM855.341 277.333c0-94.369-78.306-172.675-172.675-172.675h-339.325c-94.369 0-172.675 78.306-172.675 172.675v339.325c0 94.369 78.306 172.675 172.675 172.675h339.325c94.369 0 172.675-78.306 172.675-172.675v-339.325zM682.667 715.043h-339.325c-54.212 0-98.384-44.173-98.384-98.384v-339.325c0-54.212 44.173-98.384 98.384-98.384h339.325c54.212 0 98.384 44.173 98.384 98.384v339.325c0 54.212-44.173 98.384-98.384 98.384zM512 271.31c-96.376 0-176.69 78.306-176.69 176.69 0 96.376 78.306 176.69 176.69 176.69 96.376 0 176.69-78.306 176.69-176.69s-78.306-176.69-176.69-176.69zM694.714 588.549c-22.086 0-42.165 18.071-42.165 42.165s18.071 42.165 42.165 42.165c22.086 0 42.165-18.071 42.165-42.165s-20.078-42.165-42.165-42.165zM512 550.4c-56.22 0-102.4-46.18-102.4-102.4s46.18-102.4 102.4-102.4c56.22 0 102.4 46.18 102.4 102.4s-46.18 102.4-102.4 102.4zM512 550.4c-56.22 0-102.4-46.18-102.4-102.4s46.18-102.4 102.4-102.4c56.22 0 102.4 46.18 102.4 102.4s-46.18 102.4-102.4 102.4zM512 550.4c-56.22 0-102.4-46.18-102.4-102.4s46.18-102.4 102.4-102.4c56.22 0 102.4 46.18 102.4 102.4s-46.18 102.4-102.4 102.4zM682.667 715.043h-339.325c-54.212 0-98.384-44.173-98.384-98.384v-339.325c0-54.212 44.173-98.384 98.384-98.384h339.325c54.212 0 98.384 44.173 98.384 98.384v339.325c0 54.212-44.173 98.384-98.384 98.384zM512 271.31c-96.376 0-176.69 78.306-176.69 176.69 0 96.376 78.306 176.69 176.69 176.69 96.376 0 176.69-78.306 176.69-176.69s-78.306-176.69-176.69-176.69zM694.714 588.549c-22.086 0-42.165 18.071-42.165 42.165s18.071 42.165 42.165 42.165c22.086 0 42.165-18.071 42.165-42.165s-20.078-42.165-42.165-42.165zM512 550.4c-56.22 0-102.4-46.18-102.4-102.4s46.18-102.4 102.4-102.4c56.22 0 102.4 46.18 102.4 102.4s-46.18 102.4-102.4 102.4zM512 550.4c-56.22 0-102.4-46.18-102.4-102.4s46.18-102.4 102.4-102.4c56.22 0 102.4 46.18 102.4 102.4s-46.18 102.4-102.4 102.4zM512 550.4c-56.22 0-102.4-46.18-102.4-102.4s46.18-102.4 102.4-102.4c56.22 0 102.4 46.18 102.4 102.4s-46.18 102.4-102.4 102.4zM682.667 715.043h-339.325c-54.212 0-98.384-44.173-98.384-98.384v-339.325c0-54.212 44.173-98.384 98.384-98.384h339.325c54.212 0 98.384 44.173 98.384 98.384v339.325c0 54.212-44.173 98.384-98.384 98.384zM512 271.31c-96.376 0-176.69 78.306-176.69 176.69 0 96.376 78.306 176.69 176.69 176.69 96.376 0 176.69-78.306 176.69-176.69s-78.306-176.69-176.69-176.69zM694.714 588.549c-22.086 0-42.165 18.071-42.165 42.165s18.071 42.165 42.165 42.165c22.086 0 42.165-18.071 42.165-42.165s-20.078-42.165-42.165-42.165zM512 550.4c-56.22 0-102.4-46.18-102.4-102.4s46.18-102.4 102.4-102.4c56.22 0 102.4 46.18 102.4 102.4s-46.18 102.4-102.4 102.4z" />
<glyph unicode="&#xe90d;" glyph-name="mail" d="M512 297.813l-122.88 116.053-361.813-314.027c13.653-13.653 34.133-20.48 47.787-20.48h880.64c20.48 0 34.133 6.827 47.787 20.48l-361.813 314.027-129.707-116.053zM1003.52 789.333c-13.653 13.653-34.133 20.48-47.787 20.48h-880.64c-20.48 0-34.133-6.827-47.787-20.48l491.52-416.427 484.693 416.427zM0 748.373v-607.573l354.987 300.373zM669.013 441.173l354.987-300.373v607.573z" />
<glyph unicode="&#xe90e;" glyph-name="menu" d="M55.138 648.862h575.015v114.215h-575.015c-31.508 0-55.138-27.569-55.138-59.077s23.631-55.138 55.138-55.138zM55.138 420.431h575.015v114.215h-575.015c-31.508 0-55.138-27.569-55.138-59.077s23.631-55.138 55.138-55.138zM55.138 302.277v0c-31.508 0-55.138-23.631-55.138-55.138s23.631-55.138 55.138-55.138h397.785c-3.938 15.754-7.877 27.569-7.877 43.323 0 23.631 7.877 51.2 19.692 70.892l-409.6-3.938zM1004.308 282.585c-27.569 27.569-74.831 27.569-102.4 0l-59.077-59.077v618.338c0 39.385-31.508 70.892-70.892 70.892s-70.892-31.508-70.892-70.892v-618.338l-59.077 59.077c-27.569 27.569-74.831 27.569-102.4 0s-27.569-74.831 0-102.4l181.169-181.169c27.569-27.569 74.831-27.569 102.4 0l181.169 181.169c31.508 31.508 31.508 74.831 0 102.4z" />
<glyph unicode="&#xe90f;" glyph-name="phone" d="M707.223 422.216c0 0 0-7.367 0-7.367 0-14.734 7.367-22.101 22.101-29.468 14.734 0 22.101 7.367 29.468 22.101 0 0 0 7.367 0 7.367 0 7.367 0 7.367 0 7.367 0 29.468-7.367 58.935-14.734 81.036-14.734 44.201-36.835 81.036-66.302 103.137-29.468 29.468-66.302 51.568-110.504 66.302-14.734 0-36.835 7.367-58.935 7.367-7.367 0-14.734 0-22.101 0s-14.734 0-22.101 0c-14.734-7.367-22.101-22.101-22.101-29.468 0-14.734 14.734-22.101 29.468-22.101 7.367 0 7.367 0 14.734 0 0 0 0 0 0 0 7.367 0 7.367 0 14.734 0 51.568 0 103.137-22.101 139.971-58.935s58.935-81.036 58.935-139.971v0c7.367 0 7.367-7.367 7.367-7.367zM839.827 400.115c0-14.734 7.367-22.101 22.101-29.468 14.734 0 22.101 7.367 29.468 22.101 0 7.367 0 22.101 0 29.468 0 22.101 0 44.201-7.367 66.302-14.734 81.036-51.568 154.705-103.137 206.273-66.302 66.302-154.705 110.504-243.108 117.871-7.367 0-22.101 0-29.468 0-14.734 0-22.101 0-36.835 0s-22.101-7.367-29.468-7.367c-14.734 0-22.101-14.734-22.101-29.468s14.734-22.101 29.468-22.101c7.367 0 14.734 0 22.101 0 0 0 7.367 0 7.367 0 7.367 0 22.101 0 29.468 0 36.835 0 66.302-7.367 95.77-14.734 51.568 0 103.137-29.468 139.971-73.669 29.468-29.468 58.935-73.669 73.669-110.504s22.101-81.036 22.101-125.237c0 0 0-7.367 0-7.367 0-7.367 0-14.734 0-22.101zM869.295 797.928c-95.77 95.77-221.007 154.705-368.345 154.705-14.734 0-29.468 0-44.201 0s-29.468 0-44.201-7.367c-14.734 0-22.101-14.734-22.101-29.468s14.734-22.101 29.468-22.101c7.367 0 14.734 0 22.101 0s14.734 0 22.101 0 29.468 0 44.201 0c132.604 0 243.108-51.568 331.511-139.971 81.036-81.036 139.971-198.906 139.971-331.511 0-7.367 0-14.734 0-22.101s0-14.734 0-22.101 7.367-22.101 22.101-29.468c14.734 0 22.101 7.367 29.468 22.101 0 14.734 0 29.468 0 44.201-7.367 154.705-66.302 287.309-162.072 383.079zM987.165 193.842l-176.806 95.77c-58.935 29.468-58.935 7.367-125.237-58.935-14.734-14.734-44.201-58.935-73.669-51.568-66.302 22.101-198.906 117.871-235.741 169.439-22.101 22.101-110.504 125.237-110.504 154.705 0 51.568 110.504 81.036 73.669 176.806l-73.669 176.806c-73.669 169.439-279.942-103.137-265.209-228.374 44.201-309.41 589.353-817.727 891.396-648.288 73.669 36.835 162.072 169.439 95.77 213.64z" />
<glyph unicode="&#xe910;" glyph-name="pig" d="M1020.988 535.341c-9.035 18.071-24.094 30.118-45.176 33.129-12.047 0-27.106-3.012-36.141-9.035-6.024 6.024-15.059 9.035-21.082 12.047-21.082 6.024-63.247 0-81.318-18.071-39.153 54.212-99.388 99.388-168.659 126.494-12.047-21.082-33.129-39.153-57.224-48.188 6.024-3.012 6.024-6.024 6.024-6.024 6.024-6.024 6.024-18.071-3.012-24.094-6.024 0-9.035-3.012-12.047-3.012-6.024 0-9.035 3.012-12.047 6.024 0 0-27.106 27.106-93.365 27.106s-90.353-27.106-93.365-27.106c-6.024-6.024-15.059-6.024-24.094 0-6.024 6.024-6.024 15.059-3.012 24.094 0 0 30.118 33.129 102.4 39.153-12.047 15.059-21.082 30.118-27.106 51.2-45.176-3.012-90.353-9.035-132.518-24.094-36.141 45.176-138.541 93.365-195.765 105.412 0-111.435 48.188-138.541 48.188-198.776-42.165-39.153-72.282-84.329-87.341-135.529l-57.224 9.035c-18.071 3.012-30.118-12.047-27.106-27.106l24.094-117.459c3.012-18.071 21.082-33.129 39.153-33.129h27.106c21.082-57.224 60.235-108.424 114.447-147.576v-174.682c90.353 0 162.635-3.012 162.635 66.259v36.141c36.141-9.035 75.294-15.059 117.459-15.059 51.2 0 102.4 9.035 147.576 24.094v-45.176c0-69.271 72.282-66.259 162.635-66.259v201.788c60.235 57.224 99.388 132.518 99.388 210.824 0 54.212-18.071 105.412-45.176 150.588 12.047 18.071 51.2 24.094 66.259 18.071 3.012 0 9.035-3.012 12.047-6.024-15.059-12.047-24.094-27.106-27.106-39.153-3.012-9.035-3.012-33.129 33.129-45.176 3.012 0 9.035-3.012 12.047-3.012 12.047 0 21.082 6.024 27.106 21.082 6.024 18.071 0 42.165-15.059 63.247 9.035 3.012 15.059 6.024 24.094 3.012 15.059 0 27.106-12.047 30.118-21.082 6.024-12.047 3.012-24.094-3.012-33.129-3.012-3.012-3.012-9.035 0-12.047s9.035-3.012 12.047 0c3.012 15.059 6.024 36.141 0 51.2zM231.906 457.035c-18.071 0-30.118 15.059-30.118 30.118 0 18.071 15.059 30.118 30.118 30.118s30.118-15.059 30.118-30.118c0-15.059-15.059-30.118-30.118-30.118zM948.706 490.165c-3.012-6.024-6.024-12.047-18.071-6.024-15.059 6.024-24.094 15.059-21.082 24.094 3.012 12.047 12.047 24.094 24.094 30.118 15.059-15.059 21.082-36.141 15.059-48.188zM647.529 740.141c0-44.91-36.407-81.318-81.318-81.318s-81.318 36.407-81.318 81.318c0 44.91 36.407 81.318 81.318 81.318s81.318-36.407 81.318-81.318zM512 860.612c0-33.267-26.968-60.235-60.235-60.235s-60.235 26.968-60.235 60.235c0 33.267 26.968 60.235 60.235 60.235s60.235-26.968 60.235-60.235zM725.835 827.482c0-23.287-18.878-42.165-42.165-42.165s-42.165 18.878-42.165 42.165c0 23.287 18.878 42.165 42.165 42.165s42.165-18.878 42.165-42.165z" />
<glyph unicode="&#xe911;" glyph-name="search" d="M999.619 82.286l-224.305 224.305c0 0-4.876 0-4.876 4.876 43.886 68.267 68.267 146.286 68.267 229.181 0 234.057-190.171 419.352-419.352 419.352s-419.352-190.171-419.352-419.352c0-234.057 190.171-419.352 419.352-419.352 87.771 0 165.79 24.381 229.181 68.267 0 0 0-4.876 4.876-4.876l224.305-224.305c34.133-34.133 87.771-34.133 121.905 0s34.133 87.771 0 121.905zM419.352 262.705c-151.162 0-273.067 126.781-273.067 277.943s121.905 273.067 273.067 273.067c151.162 0 273.067-121.905 273.067-273.067s-121.905-277.943-273.067-277.943z" />
<glyph unicode="&#xe912;" glyph-name="telegram" d="M710.776 622.682l-375.467-232.91c-6.024-4.016-10.039-12.047-8.031-20.078l50.196-162.635c2.008-4.016 6.024-2.008 6.024 0l12.047 108.424c0 4.016 2.008 8.031 6.024 10.039l317.239 281.098c10.039 10.039 0 22.086-8.031 16.063zM0 960v-1024h1024v1024h-1024zM853.333 692.957l-116.455-560.188c-6.024-26.102-36.141-38.149-58.227-22.086l-176.69 130.51-90.353-92.361c-16.063-16.063-42.165-10.039-50.196 12.047l-64.251 206.808-174.682 52.204c-22.086 6.024-24.094 38.149 0 46.18l684.675 267.043c26.102 10.039 52.204-12.047 46.18-40.157z" />
<glyph unicode="&#xe913;" glyph-name="user" d="M512 415.663c129.347 0 231.747 118.568 231.747 269.474 0 204.8-102.4 269.474-231.747 269.474s-231.747-64.674-231.747-269.474c0-145.516 102.4-269.474 231.747-269.474zM1018.611 22.232l-113.179 258.695c-5.389 10.779-16.168 21.558-26.947 26.947l-177.853 91.621c-5.389 0-10.779 0-10.779 0-48.505-37.726-113.179-59.284-172.463-59.284-64.674 0-123.958 21.558-172.463 59.284-5.389 5.389-10.779 5.389-10.779 0l-188.632-86.232c-10.779-5.389-21.558-16.168-26.947-26.947l-113.179-258.695c-5.389-16.168-5.389-37.726 5.389-53.895s26.947-26.947 48.505-26.947h905.432c21.558 0 37.726 10.779 48.505 26.947 10.779 10.779 10.779 32.337 5.389 48.505z" />
<glyph unicode="&#xe914;" glyph-name="vk" d="M0 960v-1024h1024v1024h-1024zM821.208 391.78c24.094-26.102 50.196-50.196 74.29-76.298 18.071-18.071 34.133-40.157 48.188-62.243 18.071-28.11 6.024-54.212-26.102-58.227-20.078-2.008-120.471 0-126.494 0-26.102 0-50.196 10.039-70.275 28.11-22.086 20.078-40.157 42.165-60.235 64.251-6.024 6.024-12.047 12.047-20.078 18.071-16.063 12.047-32.125 10.039-40.157-10.039-6.024-16.063-12.047-60.235-12.047-64.251-2.008-20.078-14.055-32.125-36.141-34.133-64.251-4.016-124.486 4.016-182.714 34.133-48.188 26.102-88.345 62.243-120.471 106.416-54.212 68.267-96.376 142.557-134.525 220.863-2.008 4.016-40.157 86.337-42.165 90.353-4.016 14.055 0 26.102 10.039 30.118 6.024 2.008 134.525 0 138.541 0 20.078-2.008 34.133-10.039 42.165-30.118 24.094-60.235 56.22-118.463 96.376-168.659 6.024-6.024 12.047-12.047 20.078-18.071 10.039-8.031 20.078-4.016 24.094 8.031s8.031 38.149 8.031 52.204c0 34.133 0 58.227-2.008 92.361-2.008 22.086-10.039 42.165-42.165 48.188-6.024 0-6.024 8.031 0 16.063 14.055 18.071 32.125 20.078 52.204 22.086 32.125 2.008 66.259 0 98.384 0 14.055 0 26.102-2.008 40.157-4.016 18.071-4.016 26.102-16.063 30.118-32.125 2.008-8.031 2.008-18.071 2.008-26.102 0-38.149-2.008-76.298-4.016-114.447 0-14.055 0-30.118 4.016-44.173 4.016-20.078 18.071-26.102 32.125-10.039 18.071 18.071 34.133 40.157 48.188 60.235 26.102 38.149 46.18 80.314 64.251 124.486 8.031 22.086 16.063 28.11 40.157 28.11 46.18 0 90.353 0 136.533 0 8.031 0 16.063 0 24.094-4.016 12.047-4.016 18.071-14.055 14.055-26.102-6.024-30.118-22.086-56.22-40.157-80.314-28.11-40.157-56.22-78.306-86.337-116.455-4.016-4.016-6.024-10.039-10.039-16.063-8.031-22.086-8.031-32.125 8.031-48.188z" />
<glyph unicode="&#xe915;" glyph-name="youtube" d="M449.757 203.043c0-2.008 0-2.008 0-4.016-4.016-6.024-10.039-12.047-18.071-14.055-6.024-2.008-12.047 0-12.047 8.031 0 2.008 0 6.024 0 8.031 0 50.196 0 150.588 0 152.596h-38.149c0-2.008 0-142.557 0-170.667 0-8.031 0-14.055 4.016-22.086s8.031-12.047 16.063-14.055c6.024-2.008 12.047 0 18.071 2.008 12.047 4.016 20.078 12.047 28.11 20.078 0 0 2.008 2.008 2.008 2.008v-22.086h36.141v96.376c0 34.133 0 104.408 0 104.408h-36.141v-146.573zM624.439 337.569c-8.031 16.063-24.094 20.078-38.149 18.071-8.031-2.008-16.063-8.031-22.086-14.055-2.008-2.008-4.016-6.024-4.016-6.024s0 60.235 0 90.353h-36.141v-273.067h36.141v16.063c0 0 2.008-2.008 4.016-4.016 8.031-10.039 18.071-14.055 32.125-14.055 16.063 0 26.102 8.031 32.125 22.086 2.008 6.024 4.016 14.055 4.016 20.078 0 38.149 0 76.298 0 114.447-2.008 8.031-4.016 20.078-8.031 30.118zM592.314 195.012c0-2.008 0-4.016 0-6.024-2.008-8.031-8.031-12.047-16.063-10.039-6.024 2.008-10.039 4.016-12.047 8.031 0 0-2.008 2.008-2.008 2.008v122.478c0 0 0 2.008 2.008 4.016 4.016 4.016 10.039 6.024 14.055 6.024 6.024 0 10.039-2.008 10.039-8.031 2.008-4.016 2.008-8.031 2.008-12.047 2.008-34.133 2.008-70.275 2.008-106.416zM491.922 574.494c8.031 0 16.063 6.024 16.063 16.063v108.424c0 8.031-6.024 16.063-16.063 16.063s-16.063-6.024-16.063-16.063v-110.431c0-6.024 8.031-14.055 16.063-14.055zM381.49 423.906h-126.494v-38.149h42.165v-234.918h42.165v234.918h42.165zM728.847 223.122v-26.102c0-10.039-8.031-16.063-16.063-16.063-10.039 0-16.063 8.031-16.063 16.063v50.196h70.275c0 0 0 36.141 0 50.196 0 6.024 0 14.055-2.008 20.078-4.016 18.071-12.047 30.118-30.118 36.141-6.024 2.008-12.047 4.016-16.063 4.016-18.071 2.008-34.133-4.016-46.18-18.071-10.039-12.047-14.055-26.102-14.055-42.165 0-30.118 0-60.235 0-90.353 0-8.031 0-16.063 2.008-22.086 4.016-16.063 12.047-28.11 28.11-36.141 12.047-6.024 22.086-6.024 34.133-4.016 20.078 2.008 32.125 14.055 38.149 32.125 4.016 14.055 4.016 44.173 4.016 44.173l-36.141 2.008zM696.722 307.451c0 10.039 8.031 16.063 16.063 16.063 10.039 0 16.063-8.031 16.063-16.063v-30.118h-32.125v30.118zM0 960v-1024h1024v1024h-1024zM576.251 747.169h38.149v-154.604c0-2.008 0-4.016 0-6.024 2.008-6.024 6.024-10.039 12.047-8.031 8.031 2.008 14.055 8.031 18.071 14.055 0 0 0 2.008 0 4.016v150.588h38.149v-202.792h-38.149v22.086c-4.016-4.016-8.031-8.031-12.047-12.047-6.024-6.024-14.055-10.039-24.094-12.047-14.055-2.008-26.102 2.008-30.118 16.063-2.008 4.016-2.008 10.039-2.008 16.063v172.675zM491.922 751.184v0c30.118 0 54.212-24.094 54.212-54.212v-104.408c0-30.118-24.094-54.212-54.212-54.212v0c-30.118 0-54.212 24.094-54.212 54.212v104.408c0 30.118 24.094 54.212 54.212 54.212zM347.357 817.443c0 0 18.071-72.282 26.102-106.416v0c8.031 34.133 26.102 106.416 26.102 106.416h42.165c0 0-32.125-108.424-48.188-156.612 0-2.008 0-4.016 0-6.024v-112.439h-40.157v112.439c0 2.008 0 4.016 0 6.024-14.055 48.188-48.188 156.612-48.188 156.612h42.165zM817.192 170.918c0-50.196-40.157-90.353-90.353-92.361-144.565-4.016-287.122-4.016-431.686 0-50.196 2.008-90.353 42.165-90.353 92.361v224.878c0 50.196 40.157 90.353 90.353 92.361 144.565 4.016 287.122 4.016 431.686 0 50.196-2.008 90.353-42.165 90.353-92.361v-224.878z" />
<glyph unicode="&#xe916;" glyph-name="keyboard_arrow_down" d="M316 572.667l196-196 196 196 60-60-256-256-256 256z" />
<glyph unicode="&#xe917;" glyph-name="keyboard_arrow_left" d="M658 230.667l-60-60-256 256 256 256 60-60-196-196z" />
<glyph unicode="&#xe918;" glyph-name="keyboard_arrow_right" d="M366 230.667l196 196-196 196 60 60 256-256-256-256z" />
<glyph unicode="&#xe919;" glyph-name="keyboard_arrow_up" d="M316 280.667l-60 60 256 256 256-256-60-60-196 196z" />
<glyph unicode="&#xe91a;" glyph-name="star, grade" d="M512 202.667l-264-160 70 300-232 202 306 26 120 282 120-282 306-26-232-202 70-300z" />
<glyph unicode="&#xe91b;" glyph-name="star_outline" d="M512 280.667l160-96-42 182 142 124-188 16-72 172-72-172-188-16 142-124-42-182zM938 544.667l-232-202 70-300-264 160-264-160 70 300-232 202 306 26 120 282 120-282z" />
<glyph unicode="&#xe91c;" glyph-name="check" d="M384 248.667l452 452 60-60-512-512-238 238 60 60z" />
<glyph unicode="&#xe91d;" glyph-name="close" d="M810 664.667l-238-238 238-238-60-60-238 238-238-238-60 60 238 238-238 238 60 60 238-238 238 238z" />
<glyph unicode="&#xe91e;" glyph-name="instagram2" horiz-adv-x="878" d="M585.143 438.857c0 80.571-65.714 146.286-146.286 146.286s-146.286-65.714-146.286-146.286 65.714-146.286 146.286-146.286 146.286 65.714 146.286 146.286zM664 438.857c0-124.571-100.571-225.143-225.143-225.143s-225.143 100.571-225.143 225.143 100.571 225.143 225.143 225.143 225.143-100.571 225.143-225.143zM725.714 673.143c0-29.143-23.429-52.571-52.571-52.571s-52.571 23.429-52.571 52.571 23.429 52.571 52.571 52.571 52.571-23.429 52.571-52.571zM438.857 798.857c-64 0-201.143 5.143-258.857-17.714-20-8-34.857-17.714-50.286-33.143s-25.143-30.286-33.143-50.286c-22.857-57.714-17.714-194.857-17.714-258.857s-5.143-201.143 17.714-258.857c8-20 17.714-34.857 33.143-50.286s30.286-25.143 50.286-33.143c57.714-22.857 194.857-17.714 258.857-17.714s201.143-5.143 258.857 17.714c20 8 34.857 17.714 50.286 33.143s25.143 30.286 33.143 50.286c22.857 57.714 17.714 194.857 17.714 258.857s5.143 201.143-17.714 258.857c-8 20-17.714 34.857-33.143 50.286s-30.286 25.143-50.286 33.143c-57.714 22.857-194.857 17.714-258.857 17.714zM877.714 438.857c0-60.571 0.571-120.571-2.857-181.143-3.429-70.286-19.429-132.571-70.857-184s-113.714-67.429-184-70.857c-60.571-3.429-120.571-2.857-181.143-2.857s-120.571-0.571-181.143 2.857c-70.286 3.429-132.571 19.429-184 70.857s-67.429 113.714-70.857 184c-3.429 60.571-2.857 120.571-2.857 181.143s-0.571 120.571 2.857 181.143c3.429 70.286 19.429 132.571 70.857 184s113.714 67.429 184 70.857c60.571 3.429 120.571 2.857 181.143 2.857s120.571 0.571 181.143-2.857c70.286-3.429 132.571-19.429 184-70.857s67.429-113.714 70.857-184c3.429-60.571 2.857-120.571 2.857-181.143z" />
<glyph unicode="&#xe91f;" glyph-name="panorama_fish_eye, radio_button_unchecked" d="M512 84.667q140 0 241 101t101 241-101 241-241 101-241-101-101-241 101-241 241-101zM512 852.667q176 0 301-125t125-301-125-301-301-125-301 125-125 301 125 301 301 125z" />
<glyph unicode="&#xe920;" glyph-name="radio_button_checked" d="M512 84.667q140 0 241 101t101 241-101 241-241 101-241-101-101-241 101-241 241-101zM512 852.667q176 0 301-125t125-301-125-301-301-125-301 125-125 301 125 301 301 125zM512 640.667q88 0 151-63t63-151-63-151-151-63-151 63-63 151 63 151 151 63z" />
<glyph unicode="&#xe921;" glyph-name="dot" d="M170 426.667q0 140 101 241t241 101 241-101 101-241-101-241-241-101-241 101-101 241z" />
<glyph unicode="&#xe922;" glyph-name="loop" d="M512 170.667v128l170-170-170-172v128q-140 0-241 101t-101 241q0 100 54 182l62-62q-30-54-30-120 0-106 75-181t181-75zM512 768.667q140 0 241-101t101-241q0-100-54-182l-62 62q30 54 30 120 0 106-75 181t-181 75v-128l-170 170 170 172v-128z" />
<glyph unicode="&#xe923;" glyph-name="error" d="M554 384.667v256h-84v-256h84zM554 212.667v86h-84v-86h84zM512 852.667q176 0 301-125t125-301-125-301-301-125-301 125-125 301 125 301 301 125z" />
<glyph unicode="&#xe924;" glyph-name="error_outline" d="M512 84.667q140 0 241 101t101 241-101 241-241 101-241-101-101-241 101-241 241-101zM512 852.667q176 0 301-125t125-301-125-301-301-125-301 125-125 301 125 301 301 125zM470 640.667h84v-256h-84v256zM470 298.667h84v-86h-84v86z" />
<glyph unicode="&#xe925;" glyph-name="warning" d="M554 340.667v172h-84v-172h84zM554 170.667v86h-84v-86h84zM42 42.667l470 810 470-810h-940z" />
<glyph unicode="&#xe926;" glyph-name="lock_open" d="M768 84.667v428h-512v-428h512zM768 596.667q34 0 60-25t26-59v-428q0-34-26-59t-60-25h-512q-34 0-60 25t-26 59v428q0 34 26 59t60 25h388v86q0 54-39 93t-93 39-93-39-39-93h-82q0 88 63 151t151 63 151-63 63-151v-86h42zM512 212.667q-34 0-60 26t-26 60 26 60 60 26 60-26 26-60-26-60-60-26z" />
<glyph unicode="&#xe927;" glyph-name="lock_outline" d="M768 84.667v428h-512v-428h512zM380 682.667v-86h264v86q0 54-39 93t-93 39-93-39-39-93zM768 596.667q34 0 60-25t26-59v-428q0-34-26-59t-60-25h-512q-34 0-60 25t-26 59v428q0 34 26 59t60 25h42v86q0 88 63 151t151 63 151-63 63-151v-86h42zM512 212.667q-34 0-60 26t-26 60 26 60 60 26 60-26 26-60-26-60-60-26z" />
<glyph unicode="&#xe928;" glyph-name="visibility_off" d="M506 554.667h6q52 0 90-38t38-90v-8zM322 520.667q-24-48-24-94 0-88 63-151t151-63q46 0 94 24l-66 66q-16-4-28-4-52 0-90 38t-38 90q0 12 4 28zM86 756.667l54 54 756-756-54-54q-10 10-63 62t-81 80q-86-36-186-36-158 0-286 88t-184 232q22 52 69 115t91 97q-24 24-67 68t-49 50zM512 640.667q-40 0-78-16l-92 92q78 30 170 30 158 0 285-88t183-232q-48-118-146-202l-124 124q16 38 16 78 0 88-63 151t-151 63z" />
<glyph unicode="&#xe929;" glyph-name="calendar_today" d="M854 42.667v554h-684v-554h684zM854 810.667q34 0 59-26t25-60v-682q0-34-25-60t-59-26h-684q-34 0-59 26t-25 60v682q0 34 25 60t59 26h44v86h84v-86h428v86h84v-86h44z" />
<glyph unicode="&#xe92a;" glyph-name="swap_vert" d="M384 810.667l170-170h-128v-300h-84v300h-128zM682 212.667h128l-170-170-170 170h128v300h84v-300z" />
<glyph unicode="&#xe92b;" glyph-name="filter_list_alt" d="M182 696.667q-12 14-12 28 0 18 13 31t31 13h596q18 0 31-13t13-31q2-12-10-26l-246-314v-256q0-18-12-31t-30-13h-86q-18 0-31 13t-13 31v256q-240 306-244 312z" />
<glyph unicode="&#xe92c;" glyph-name="sort-amount-asc" horiz-adv-x="1041" d="M420.571 128c0-5.143-2.286-9.714-5.714-13.714l-182.286-182.286c-4-3.429-8.571-5.143-13.143-5.143s-9.143 1.714-13.143 5.143l-182.857 182.857c-5.143 5.714-6.857 13.143-4 20s9.714 11.429 17.143 11.429h109.714v786.286c0 10.286 8 18.286 18.286 18.286h109.714c10.286 0 18.286-8 18.286-18.286v-786.286h109.714c10.286 0 18.286-8 18.286-18.286zM1024 54.857v-109.714c0-10.286-8-18.286-18.286-18.286h-475.429c-10.286 0-18.286 8-18.286 18.286v109.714c0 10.286 8 18.286 18.286 18.286h475.429c10.286 0 18.286-8 18.286-18.286zM914.286 347.428v-109.714c0-10.286-8-18.286-18.286-18.286h-365.714c-10.286 0-18.286 8-18.286 18.286v109.714c0 10.286 8 18.286 18.286 18.286h365.714c10.286 0 18.286-8 18.286-18.286zM804.571 640v-109.714c0-10.286-8-18.286-18.286-18.286h-256c-10.286 0-18.286 8-18.286 18.286v109.714c0 10.286 8 18.286 18.286 18.286h256c10.286 0 18.286-8 18.286-18.286zM694.857 932.571v-109.714c0-10.286-8-18.286-18.286-18.286h-146.286c-10.286 0-18.286 8-18.286 18.286v109.714c0 10.286 8 18.286 18.286 18.286h146.286c10.286 0 18.286-8 18.286-18.286z" />
</font>
</defs>
</svg>
